<svg xmlns="http://www.w3.org/2000/svg" version="1.1" xmlns:xlink="http://www.w3.org/1999/xlink" xmlns:svgjs="http://svgjs.dev/svgjs" width="100%" height="100%" viewBox="0 0 1000 600"><rect width="1000" height="600" x="0" y="0" fill="#00214d"/><g><circle r="166.66666666666666" cx="385.00014750162757" cy="407.2223354996614" fill="#7c3aed" transform="matrix(0.5725188356285671,0,0,0.5725188356285671,0,66.85754604481704)"/><path d="M383.8877696144415 415.13735621331216L383.8877696144415 415.13735621331216Q359.13021121508234 408.0352455664914 347.8352882586927 397.6530436570827Q336.5688878350212 387.27084174767407 336.5688878350212 372.0398092761789L336.5688878350212 372.0398092761789Q336.5688878350212 354.7836769816948 350.3452711378904 343.4887540253051Q364.15017697347776 332.2223536016336 386.19809476461205 332.2223536016336L386.19809476461205 332.2223536016336Q401.2579920397983 332.2223536016336 413.03779805239657 338.0409502761374Q424.81760406499484 343.8595469506411 431.26369645929805 354.0706136637409Q437.73831138631937 364.31020290955877 437.73831138631937 376.4322793147749L437.73831138631937 376.4322793147749L418.40003420340986 376.4322793147749Q418.40003420340986 363.1978241335507 409.9573645188358 355.63935296323945Q401.54321736697983 348.05235926021 386.19809476461205 348.05235926021L386.19809476461205 348.05235926021Q371.9653509382524 348.05235926021 363.9790417771688 354.3273164582043Q356.02125514880333 360.6022736561985 356.02125514880333 371.72606141627926L356.02125514880333 371.72606141627926Q356.02125514880333 380.65361415706195 363.5797263191146 386.81448122418357Q371.16672002214403 392.97534829130524 389.36409589632734 398.1094041805732Q407.5614717705107 403.2149375371231 417.82958354904673 409.3758046042447Q428.1262178603009 415.5366716713664 433.08913855326 423.77968362691337Q438.0520592462191 431.9941730497422 438.0520592462191 443.1179608098229L438.0520592462191 443.1179608098229Q438.0520592462191 460.85897616051574 424.2186308779136 471.5549259298241Q410.35667997688995 482.2223531664143 387.1963834097475 482.2223531664143L387.1963834097475 482.2223531664143Q372.1650086672795 482.2223531664143 359.13021121508234 476.4608015573469Q346.0954137628852 470.6992499482794 339.0218256487826 460.65931843148866Q331.94823753468 450.647909447416 331.94823753468 437.8983373224004L331.94823753468 437.8983373224004L351.3150372503077 437.8983373224004Q351.3150372503077 451.1327925036246 361.0982659726351 458.8053538048085Q370.8529721622443 466.4779151059924 387.1963834097475 466.4779151059924L387.1963834097475 466.4779151059924Q402.45593841396084 466.4779151059924 410.5848602386352 460.26000297343444Q418.6852595305914 454.0420908408765 418.6852595305914 443.31761853884996Q418.6852595305914 432.59314623682343 411.18383342571644 426.71750449688335Q403.6538847881234 420.87038528966144 383.8877696144415 415.13735621331216Z " fill="White" transform="matrix(0.5725188356285671,0,0,0.5725188356285671,0,66.85754604481704)"/><path d="M674.8005285712331 400.37039828545403L674.8005285712331 400.37039828545403Q655.8292324601123 394.9281716360657 647.1741250177115 386.9724668152731Q638.5408739072361 379.01676199448053 638.5408739072361 367.3454807463947L638.5408739072361 367.3454807463947Q638.5408739072361 354.12239993161575 649.0974822271339 345.467292489215Q659.6759468789571 336.8340413787395 676.5708914571787 336.8340413787395L676.5708914571787 336.8340413787395Q688.111034713713 336.8340413787395 697.1376997988431 341.2927330914914Q706.1643648839731 345.75142480424336 711.1038958990806 353.5759916334844Q716.0652832461134 361.42241479465076 716.0652832461134 370.71135586288386L716.0652832461134 370.71135586288386L701.2466902007909 370.71135586288386Q701.2466902007909 360.57001784956583 694.7772159509157 354.7780898893734Q688.3295980329656 348.9643055972557 676.5708914571787 348.9643055972557L676.5708914571787 348.9643055972557Q665.6645818264767 348.9643055972557 659.5448088874055 353.7726986208117Q653.4468922802596 358.5810916443677 653.4468922802596 367.10506109521685L653.4468922802596 367.10506109521685Q653.4468922802596 373.9460929878215 659.238820240452 378.6670606836764Q665.0526045325696 383.38802837953136 678.996944300882 387.3221681260772Q692.9412840691942 391.2344515406977 700.8095635622858 395.95541923655264Q708.6996993873026 400.67638693240764 712.5027011422969 406.9928668588061Q716.3057028972912 413.2874904532794 716.3057028972912 421.8114599041286L716.3057028972912 421.8114599041286Q716.3057028972912 435.4060983616368 705.7053819135429 443.6022228336072Q695.0832045978691 451.77649097365236 677.3358630745627 451.77649097365236L677.3358630745627 451.77649097365236Q665.8175761499535 451.77649097365236 655.8292324601123 447.36151192475097Q645.840888770271 442.9465328758496 640.420518452808 435.2531040381601Q635.0001481353448 427.5815315323958 635.0001481353448 417.811751161807L635.0001481353448 417.811751161807L649.8405975125926 417.811751161807Q649.8405975125926 427.95308917512506 657.3373193629548 433.8324424630185Q664.8121848813919 439.7117957509119 677.3358630745627 439.7117957509119L677.3358630745627 439.7117957509119Q689.0290006545737 439.7117957509119 695.2580552532712 434.94711539120647Q701.4652535200435 430.18243503150103 701.4652535200435 421.96445422760536Q701.4652535200435 413.74647342370974 695.7170382237016 409.2440690471073Q689.9469665954343 404.7635210024302 674.8005285712331 400.37039828545403ZM803.2064786321026 408.28239044239615L803.2064786321026 409.5937703579114Q803.2064786321026 428.58692280095744 794.5295148577766 440.1707787213423Q785.8306947515254 451.77649097365236 771.0121017062029 451.77649097365236L771.0121017062029 451.77649097365236Q755.8656636820016 451.77649097365236 747.1886999076756 442.1815612584657L747.1886999076756 442.1815612584657L747.1886999076756 482.22236134553174L732.9820841562603 482.22236134553174L732.9820841562603 367.10506109521685L745.9647453198614 367.10506109521685L746.6422916095443 376.32843316767423Q755.3411117157955 365.57511786044904 770.771682055025 365.57511786044904L770.771682055025 365.57511786044904Q785.7651257557496 365.57511786044904 794.4858021939261 376.87484146580556Q803.2064786321026 388.15270873923686 803.2064786321026 408.28239044239615L803.2064786321026 408.28239044239615ZM788.9998628806873 407.97640179544254L788.9998628806873 407.97640179544254Q788.9998628806873 393.922780367504 782.9893716012423 385.7703685593841Q777.0007366537226 377.6398130831895 766.553409993451 377.6398130831895L766.553409993451 377.6398130831895Q753.6363178256257 377.6398130831895 747.1886999076756 389.0925310120228L747.1886999076756 389.0925310120228L747.1886999076756 428.80548612021Q753.5707488298499 440.1707787213423 766.7064043169278 440.1707787213423L766.7064043169278 440.1707787213423Q776.9351676579469 440.1707787213423 782.967515269317 432.08393590899817Q788.9998628806873 423.9752367647288 788.9998628806873 407.97640179544254ZM855.7709569123394 451.77649097365236L855.7709569123394 451.77649097365236Q838.8541560021926 451.77649097365236 828.2538350184442 440.6734743556231Q817.6535140346958 429.5704577375939 817.6535140346958 410.99257560112767L817.6535140346958 410.99257560112767L817.6535140346958 408.36981577009715Q817.6535140346958 395.99913190040314 822.3744817305507 386.273064193665Q827.0954494264057 376.568852818852 835.5975625453297 371.0610571736879Q844.0778193323283 365.57511786044904 854.0005940263939 365.57511786044904L854.0005940263939 365.57511786044904Q870.2179923149325 365.57511786044904 879.2009447362121 376.2410078399732Q888.1838971574917 386.9287541514226 888.1838971574917 406.83987253532933L888.1838971574917 406.83987253532933L888.1838971574917 412.74108215514804L831.8601297861111 412.74108215514804Q832.1661184330646 425.04619702906626 839.0508629895198 432.6084878752043Q845.9356075459749 440.1707787213423 856.5359285297233 440.1707787213423L856.5359285297233 440.1707787213423Q864.0545067120108 440.1707787213423 869.2781700421466 437.11089225180666Q874.5018333722825 434.0291494503458 878.4359731188282 428.95848044368677L878.4359731188282 428.95848044368677L887.1129368931541 435.7339433405156Q876.6656102328826 451.77649097365236 855.7709569123394 451.77649097365236ZM854.0005940263939 377.2463991085349L854.0005940263939 377.2463991085349Q845.3891992478435 377.2463991085349 839.5535586238007 383.5191663710829Q833.7179179997578 389.77007730170567 832.3191127565415 401.0698009070622L832.3191127565415 401.0698009070622L873.9772814060763 401.0698009070622L873.9772814060763 399.9988406427247Q873.3653041121692 389.15810000779857 868.1416407820334 383.21317772412937Q862.9179774518976 377.2463991085349 854.0005940263939 377.2463991085349ZM904.6417150972082 367.10506109521685L918.0833592312397 367.10506109521685L918.54234220167 377.5523877554885Q928.0717029210809 365.57511786044904 943.4367042645348 365.57511786044904L943.4367042645348 365.57511786044904Q969.7954405663916 365.57511786044904 970.0140038856441 395.29972927879504L970.0140038856441 395.29972927879504L970.0140038856441 450.24654773888454L955.8073881342287 450.24654773888454L955.8073881342287 395.23416028301926Q955.7199628065277 386.22935152981444 951.6983977322809 381.9455104724646Q947.6549763261089 377.6398130831895 939.1310068752597 377.6398130831895L939.1310068752597 377.6398130831895Q932.2244059868793 377.6398130831895 927.0007426567435 381.3116768466322Q921.7770793266077 385.00539694200023 918.8483308486236 390.99403188951993L918.8483308486236 390.99403188951993L918.8483308486236 450.24654773888454L904.6417150972082 450.24654773888454L904.6417150972082 367.10506109521685ZM988.0017650601284 409.0692183917053L988.0017650601284 407.97640179544254Q988.0017650601284 388.85211136084496 997.0721428091091 377.2026864446844Q1006.1425205580896 365.57511786044904 1020.8081192799353 365.57511786044904L1020.8081192799353 365.57511786044904Q1035.4081490060053 365.57511786044904 1043.9321184568544 375.5634615502903L1043.9321184568544 375.5634615502903L1043.9321184568544 332.22235534251087L1058.160590540195 332.22235534251087L1058.160590540195 450.24654773888454L1045.0905040488929 450.24654773888454L1044.41295775921 441.3291643133808Q1035.8671319764358 451.77649097365236 1020.6551249564585 451.77649097365236L1020.6551249564585 451.77649097365236Q1006.2080895538653 451.77649097365236 997.1158554729595 439.95221540208973Q988.0017650601284 428.1060834986019 988.0017650601284 409.0692183917053L988.0017650601284 409.0692183917053ZM1002.2083808115437 409.5937703579114L1002.2083808115437 409.5937703579114Q1002.2083808115437 423.734817113551 1008.065877767512 431.73423459819406Q1013.9015183915549 439.7117957509119 1024.1958507283498 439.7117957509119L1024.1958507283498 439.7117957509119Q1037.7249201900822 439.7117957509119 1043.9321184568544 427.5815315323958L1043.9321184568544 427.5815315323958L1043.9321184568544 389.39851965897634Q1037.5719258666054 377.6398130831895 1024.3488450518266 377.6398130831895L1024.3488450518266 377.6398130831895Q1013.9015183915549 377.6398130831895 1008.065877767512 385.70479956360833Q1002.2083808115437 393.7697860440272 1002.2083808115437 409.5937703579114ZM1154.3503073432396 400.37039828545403L1154.3503073432396 400.37039828545403Q1135.379011232119 394.9281716360657 1126.723903789718 386.9724668152731Q1118.0906526792426 379.01676199448053 1118.0906526792426 367.3454807463947L1118.0906526792426 367.3454807463947Q1118.0906526792426 354.12239993161575 1128.6472609991404 345.467292489215Q1139.2257256509633 336.8340413787395 1156.1206702291852 336.8340413787395L1156.1206702291852 336.8340413787395Q1167.6608134857197 336.8340413787395 1176.6874785708496 341.2927330914914Q1185.7141436559796 345.75142480424336 1190.6536746710872 353.5759916334844Q1195.6150620181197 361.42241479465076 1195.6150620181197 370.71135586288386L1195.6150620181197 370.71135586288386L1180.7964689727974 370.71135586288386Q1180.7964689727974 360.57001784956583 1174.326994722922 354.7780898893734Q1167.8793768049723 348.9643055972557 1156.1206702291852 348.9643055972557L1156.1206702291852 348.9643055972557Q1145.2143605984834 348.9643055972557 1139.1164439913373 353.7726986208117Q1132.996671052266 358.5810916443677 1132.996671052266 367.10506109521685L1132.996671052266 367.10506109521685Q1132.996671052266 373.9460929878215 1138.7885990124585 378.6670606836764Q1144.602383304576 383.38802837953136 1158.5467230728884 387.3221681260772Q1172.4910628412008 391.2344515406977 1180.3593423342923 395.95541923655264Q1188.249478159309 400.67638693240764 1192.0524799143034 406.9928668588061Q1195.8554816692977 413.2874904532794 1195.8554816692977 421.8114599041286L1195.8554816692977 421.8114599041286Q1195.8554816692977 435.4060983616368 1185.2551606855493 443.6022228336072Q1174.6329833698755 451.77649097365236 1156.8856418465691 451.77649097365236L1156.8856418465691 451.77649097365236Q1145.36735492196 451.77649097365236 1135.379011232119 447.36151192475097Q1125.3906675422777 442.9465328758496 1119.9702972248142 435.2531040381601Q1114.5499269073514 427.5815315323958 1114.5499269073514 417.811751161807L1114.5499269073514 417.811751161807L1129.390376284599 417.811751161807Q1129.390376284599 427.95308917512506 1136.8870981349614 433.8324424630185Q1144.3619636533983 439.7117957509119 1156.8856418465691 439.7117957509119L1156.8856418465691 439.7117957509119Q1168.5787794265802 439.7117957509119 1174.8078340252778 434.94711539120647Q1181.01503229205 430.18243503150103 1181.01503229205 421.96445422760536Q1181.01503229205 413.74647342370974 1175.266816995708 409.2440690471073Q1169.4967453674408 404.7635210024302 1154.3503073432396 400.37039828545403ZM1212.4444376005658 367.10506109521685L1225.8860817345972 367.10506109521685L1226.2794957092517 376.32843316767423Q1235.4154424540081 365.57511786044904 1250.955294452864 365.57511786044904L1250.955294452864 365.57511786044904Q1268.396647329217 365.57511786044904 1274.6912709236904 378.9293366667795L1274.6912709236904 378.9293366667795Q1278.8439739894889 372.9407017192598 1285.488298894766 369.26883795581705Q1292.1326238000433 365.57511786044904 1301.203001549024 365.57511786044904L1301.203001549024 365.57511786044904Q1328.5452727875172 365.57511786044904 1329.0042557579472 394.5347576614111L1329.0042557579472 394.5347576614111L1329.0042557579472 450.24654773888454L1314.7976400065322 450.24654773888454L1314.7976400065322 395.38715460649604Q1314.7976400065322 386.46977118099227 1310.7323622684348 382.0547921320909Q1306.645228198412 377.6398130831895 1297.0502984832256 377.6398130831895L1297.0502984832256 377.6398130831895Q1289.1383063262833 377.6398130831895 1283.9146429961474 382.36078077904443Q1278.690979666012 387.08174847489937 1277.8385827209268 395.0811659595425L1277.8385827209268 395.0811659595425L1277.8385827209268 450.24654773888454L1263.5445416418106 450.24654773888454L1263.5445416418106 395.75871224922537Q1263.5445416418106 377.6398130831895 1245.797200118504 377.6398130831895L1245.797200118504 377.6398130831895Q1231.809147686341 377.6398130831895 1226.6729096839063 389.5515139824531L1226.6729096839063 389.5515139824531L1226.6729096839063 450.24654773888454L1212.4444376005658 450.24654773888454L1212.4444376005658 367.10506109521685ZM1416.691859442068 450.24654773888454L1401.7858410690446 450.24654773888454Q1400.540030149305 447.7767822313308 1399.7750585319213 441.48215863685755L1399.7750585319213 441.48215863685755Q1389.8741401697807 451.77649097365236 1376.1046510568708 451.77649097365236L1376.1046510568708 451.77649097365236Q1363.8213925148775 451.77649097365236 1355.953113021786 444.8261774214215Q1348.0629771967692 437.8758638691906 1348.0629771967692 427.1881175577412L1348.0629771967692 427.1881175577412Q1348.0629771967692 414.20545639414007 1357.9420392269844 407.0147231907314Q1367.8211012571992 399.8458463192479 1385.7214371039827 399.8458463192479L1385.7214371039827 399.8458463192479L1399.5564952126688 399.8458463192479L1399.5564952126688 393.3108030735969Q1399.5564952126688 385.8577938870851 1395.0978034999166 381.4428148381837Q1390.639111787165 377.02783578928234 1381.962148012839 377.02783578928234L1381.962148012839 377.02783578928234Q1374.3561445028504 377.02783578928234 1369.1980501684902 380.8526938762019Q1364.0618121660555 384.6994082950467 1364.0618121660555 390.1634912763603L1364.0618121660555 390.1634912763603L1349.7677710869389 390.1634912763603Q1349.7677710869389 383.93443667766275 1354.1827501358407 378.1425087174703Q1358.597729184742 372.3287244253527 1366.1600200308799 368.9409929769382Q1373.7223108770181 365.57511786044904 1382.7926886259984 365.57511786044904L1382.7926886259984 365.57511786044904Q1397.174155032816 365.57511786044904 1405.3047105090104 372.7439947319325Q1413.4571223171306 379.9347279353412 1413.7631109640838 392.54583145621297L1413.7631109640838 392.54583145621297L1413.7631109640838 430.8162686573334Q1413.7631109640838 442.2471302542414 1416.691859442068 449.02259315107034L1416.691859442068 449.02259315107034L1416.691859442068 450.24654773888454ZM1378.1810025897698 439.40580710395835L1378.1810025897698 439.40580710395835Q1384.8690401588974 439.40580710395835 1390.8576751064174 435.9525066597682Q1396.8681663858624 432.499206215578 1399.5564952126688 426.9695542384886L1399.5564952126688 426.9695542384886L1399.5564952126688 409.89975900486496L1388.409765930789 409.89975900486496Q1362.2914492801096 409.89975900486496 1362.2914492801096 425.19919135254304L1362.2914492801096 425.19919135254304Q1362.2914492801096 431.8872289216709 1366.7501409928618 435.6465180128146Q1371.1869763736886 439.40580710395835 1378.1810025897698 439.40580710395835ZM1476.2285076064609 366.6460781247865L1476.2285076064609 379.8691589395654Q1473.0156268134488 379.3227506414341 1469.2344813903796 379.3227506414341L1469.2344813903796 379.3227506414341Q1455.268285290142 379.3227506414341 1450.2631852792588 391.2344515406977L1450.2631852792588 391.2344515406977L1450.2631852792588 450.24654773888454L1436.0565695278433 450.24654773888454L1436.0565695278433 367.10506109521685L1449.869771304604 367.10506109521685L1450.110190955782 376.7218471423288Q1457.1042171718636 365.57511786044904 1469.9338840119876 365.57511786044904L1469.9338840119876 365.57511786044904Q1474.0865870777861 365.57511786044904 1476.2285076064609 366.6460781247865L1476.2285076064609 366.6460781247865ZM1498.2159775232667 346.97537939205756L1512.4225932746822 346.97537939205756L1512.4225932746822 367.10506109521685L1527.940588941613 367.10506109521685L1527.940588941613 378.0987960536198L1512.4225932746822 378.0987960536198L1512.4225932746822 429.6578830652949Q1512.4225932746822 434.6411267442529 1514.4989448075812 437.15460491565716Q1516.5752963404807 439.6462267551362 1521.580396351364 439.6462267551362L1521.580396351364 439.6462267551362Q1524.0283055269924 439.6462267551362 1528.3340029162678 438.72826081427553L1528.3340029162678 438.72826081427553L1528.3340029162678 450.24654773888454Q1522.716925611477 451.77649097365236 1517.4276932855655 451.77649097365236L1517.4276932855655 451.77649097365236Q1507.8983325661547 451.77649097365236 1503.0462268787483 446.02827567731043Q1498.2159775232667 440.2582040490433 1498.2159775232667 429.6578830652949L1498.2159775232667 429.6578830652949L1498.2159775232667 378.0987960536198L1483.0695394990657 378.0987960536198L1483.0695394990657 367.10506109521685L1498.2159775232667 367.10506109521685L1498.2159775232667 346.97537939205756Z " fill="white" transform="matrix(0.5725188356285671,0,0,0.5725188356285671,0,66.85754604481704)"/></g></svg>