<svg xmlns="http://www.w3.org/2000/svg" version="1.1" xmlns:xlink="http://www.w3.org/1999/xlink" xmlns:svgjs="http://svgjs.dev/svgjs" width="100%" height="100%" viewBox="0 0 1000 600"><rect width="1000" height="600" x="0" y="0" fill="#1e293b"/><g><rect width="333.3333333333333" height="333.3333333333333" rx="13.333333333333334" ry="13.333333333333334" y="201.94118546753248" fill="#6d28da" transform="matrix(0.695530303399079,0,0,0.695530303399079,0,43.62204726686949)" x="179.71897888183594"/><path d="M311.28423016881857 412.3956851440239L311.28423016881857 412.3956851440239Q311.28423016881857 407.6353384253031 311.8240633018694 403.586589927422Q312.3884343046043 399.5378414295409 313.5171763100742 394.9492597986091L313.5171763100742 394.9492597986091L330.86545017675246 394.9492597986091L330.86545017675246 401.52540887395526Q330.86545017675246 413.42627567075726 334.47251702031923 419.75704604926216Q338.10412173357014 426.11235429745125 345.6127098569132 426.11235429745125L345.6127098569132 426.11235429745125Q358.54416718044854 426.11235429745125 358.54416718044854 413.42627567075726L358.54416718044854 413.42627567075726Q358.54416718044854 408.4941638642475 356.43391038761354 403.07129466405536Q354.32365359477853 397.623887594179 348.18918617374663 389.7717692952581L348.18918617374663 389.7717692952581L324.9027478435094 360.547166501462Q318.76828042247746 352.59689672380455 315.3820544060679 344.6711648158314Q311.9712905199741 336.7208950381739 311.9712905199741 326.9793607735752L311.9712905199741 326.9793607735752Q311.9712905199741 312.30571470246684 321.0748401727855 302.9567863528142Q330.1538519559127 293.60785800316154 346.2997702080688 293.60785800316154L346.2997702080688 293.60785800316154Q359.32937901034063 293.60785800316154 366.73981565494717 298.29459111282995Q374.15025229955376 303.0058620921825 377.2174860100697 310.17092003994776Q380.2847197205857 317.31144011802894 380.2847197205857 324.82002824137203L380.2847197205857 324.82002824137203Q380.2847197205857 329.58037496009274 379.5485836300619 333.58004771860556Q378.812447539538 337.60425834680257 377.88000849154116 342.41368080489156L377.88000849154116 342.41368080489156L360.60534823391527 342.41368080489156L360.60534823391527 335.34677433586273Q360.60534823391527 323.71582410558625 356.900129911612 317.40959159676544Q353.19491158930873 311.10335908794457 346.2997702080688 311.10335908794457L346.2997702080688 311.10335908794457Q339.993537699248 311.10335908794457 336.7545389009431 314.61227445277484Q333.54007797232236 318.09665194792103 333.54007797232236 323.9612028024275L333.54007797232236 323.9612028024275Q333.54007797232236 328.96692821798956 335.6012590257891 333.06475245523893Q337.6624400792558 337.1625766924883 340.85236313819246 341.48124175689475L340.85236313819246 341.48124175689475L366.8379671336837 374.4356007426783Q373.9784872117649 383.66183974391026 377.73278127343644 391.9801775668295Q381.487075335108 400.2985153897489 381.487075335108 410.4817313086619L381.487075335108 410.4817313086619Q381.487075335108 425.7688241218734 371.74554107050926 434.6760708172118Q362.00400680591054 443.60785538223433 345.7844749447021 443.60785538223433L345.7844749447021 443.60785538223433Q332.4849495759049 443.60785538223433 324.9518235828777 439.0928873603548Q317.3941597201664 434.55338146879114 314.3269260096504 427.3883235210259Q311.28423016881857 420.2478034429447 311.28423016881857 412.3956851440239Z " fill="white" transform="matrix(0.695530303399079,0,0,0.695530303399079,0,43.62204726686949)"/><path d="M596.3856515033091 391.21433855107045L596.3856515033091 391.21433855107045Q596.3856515033091 387.5581005124392 596.800276435525 384.4484135208198Q597.2337479555689 381.33872652920047 598.1006909956568 377.8144146053652L598.1006909956568 377.8144146053652L611.42522859005 377.8144146053652L611.42522859005 382.8653001432681Q611.42522859005 392.00589523984627 614.1956770007655 396.8683148994693Q616.9849719993089 401.74958114692026 622.7520278746756 401.74958114692026L622.7520278746756 401.74958114692026Q632.6841796600297 401.74958114692026 632.6841796600297 392.00589523984627L632.6841796600297 392.00589523984627Q632.6841796600297 388.217731086419 631.0633731068219 384.05263517643186Q629.4425665536144 379.86869267861675 624.7309195966152 373.8377845736579L624.7309195966152 373.8377845736579L606.8455077478469 351.39149847051453Q602.1338607908478 345.28520401424385 599.5330316705845 339.1977561458011Q596.9133559624929 333.0914616895303 596.9133559624929 325.60936632181586L596.9133559624929 325.60936632181586Q596.9133559624929 314.33910680067413 603.9054400466796 307.1585568382077Q610.8786775430381 299.97800687574113 623.2797323338596 299.97800687574113L623.2797323338596 299.97800687574113Q633.2872704705255 299.97800687574113 638.9789399945803 303.5777051508884Q644.6706095186352 307.1962500138636 647.0264329971346 312.6994536596385Q649.3822564756342 318.1838107175854 649.3822564756342 323.9508665929522L649.3822564756342 323.9508665929522Q649.3822564756342 327.6071046315834 648.8168588407943 330.67909844754683Q648.2514612059545 333.7699388513382 647.5352908684906 337.46387006562543L647.5352908684906 337.46387006562543L634.2672930375813 337.46387006562543L634.2672930375813 332.03605277116253Q634.2672930375813 323.1027701406924 631.421458275554 318.2591970688974Q628.5756235135265 313.41562399710233 623.2797323338596 313.41562399710233L623.2797323338596 313.41562399710233Q618.4361592620646 313.41562399710233 615.948409668769 316.1106860565058Q613.4795066633015 318.7869015280812 613.4795066633015 323.2912360189723L613.4795066633015 323.2912360189723Q613.4795066633015 327.1359399358836 615.0626200408533 330.28332010315887Q616.6457334184049 333.4307002704343 619.0957898360444 336.7476997281616L619.0957898360444 336.7476997281616L639.0543263458924 362.05866718116044Q644.5386834038392 369.14498420448695 647.4222113415226 375.5339774781776Q650.305739279206 381.9229707518683 650.305739279206 389.74430470048674L650.305739279206 389.74430470048674Q650.305739279206 401.4857289173283 642.8236439114916 408.3270402988909Q635.3415485437771 415.18719826828146 622.8839539894716 415.18719826828146L622.8839539894716 415.18719826828146Q612.6691033866978 415.18719826828146 606.883200923503 411.7194261079302Q601.0784518724802 408.23280735975095 598.7226283939806 402.7296037139761Q596.3856515033091 397.24524665602917 596.3856515033091 391.21433855107045ZM678.8017800751361 408.10088124495496L679.32948453432 419.2957544147846L679.32948453432 443.60785271289967L662.5748679552314 443.60785271289967L662.5748679552314 322.89545767458446L675.6920930835167 322.89545767458446L677.2186666975845 332.50721746686247Q679.536797000428 328.7190533134352 683.5699667956192 325.30782091656795Q687.6219831786384 321.89658851970063 694.1052093914691 321.89658851970063L694.1052093914691 321.89658851970063Q696.2348738160326 321.89658851970063 699.3822539833079 322.72583838413243Q702.5296341505832 323.5550882485643 705.6770143178587 326.6459286523557Q708.824394485134 329.717922468319 710.9352123218696 336.35192138377363Q713.0648767464331 342.9670737114003 713.0648767464331 354.6331115769299L713.0648767464331 354.6331115769299L713.0648767464331 382.2622093327723Q713.0648767464331 393.85286084698987 710.8975191462137 400.52455293810044Q708.7490081338219 407.17739844138316 705.5450882030627 410.32477860865845Q702.3223216844754 413.47215877593385 699.0430154024041 414.33910181602164Q695.7637091203326 415.18719826828146 693.4455788174891 415.18719826828146L693.4455788174891 415.18719826828146Q688.1496876378222 415.18719826828146 684.606529126159 413.0763804315459Q681.0445240266677 410.94671600698234 678.8017800751361 408.10088124495496L678.8017800751361 408.10088124495496ZM679.32948453432 341.7797386782365L679.32948453432 394.3240255426898Q680.4602798039998 396.9060080751252 682.4203249381114 398.9602861483768Q684.3615234843951 401.01456422162835 687.7539092934344 401.01456422162835L687.7539092934344 401.01456422162835Q690.2039657110738 401.01456422162835 692.0886244938733 399.6953030736687Q693.9732832766731 398.35719533788097 695.0663853706969 394.7574970627337Q696.1594874647205 391.13895219975836 696.1594874647205 384.37302716950785L696.1594874647205 384.37302716950785L696.1594874647205 352.0511290444945Q696.1594874647205 345.22866425075983 695.1040785463529 341.6855057390966Q694.048669627985 338.14234722743333 692.1451642573575 336.8042394916456Q690.2605054745578 335.48497834368584 687.8104490569183 335.48497834368584L687.8104490569183 335.48497834368584Q684.7007620652989 335.48497834368584 682.6464839920474 337.3696371264855Q680.5922059187958 339.254295909285 679.32948453432 341.7797386782365L679.32948453432 341.7797386782365ZM725.6543974155345 376.7590056869974L725.6543974155345 376.7590056869974L725.6543974155345 359.53322441220894Q725.6543974155345 349.073368167671 727.4259766713662 342.1755170226245Q729.2164025150257 335.2776658775779 732.1753168040211 331.16910973107474Q735.1153845051886 327.0605535845716 738.6585430168518 325.081661862632Q742.2017015285151 323.1027701406924 745.7260134523503 322.4619861545405Q749.2314787883577 321.8400487562167 752.1526999016971 321.8400487562167L752.1526999016971 321.8400487562167Q758.183608006656 321.8400487562167 763.2721867202149 324.38433811299615Q768.3796120216018 326.9286274697756 771.4704524253932 333.12915486518636Q774.5424462413564 339.329682260597 774.5424462413564 350.3172429643188L774.5424462413564 350.3172429643188Q774.5424462413564 355.82044661009365 773.9393554308606 361.54980930980446Q773.3551112081927 367.27917200951526 772.356242053309 371.6515803856104L772.356242053309 371.6515803856104L742.465553758107 371.6515803856104L742.465553758107 380.9429481848125Q742.465553758107 392.8539916921061 744.5009852435307 397.772951115213Q746.5175701411263 402.67306395049206 752.209239665181 402.67306395049206L752.209239665181 402.67306395049206Q755.3377732446284 402.67306395049206 757.8443694257519 399.97800189108864Q760.3698121947034 397.3017864195132 760.3698121947034 390.0835432813906L760.3698121947034 390.0835432813906L760.3698121947034 386.10691324968343L774.1466678969687 386.10691324968343L774.1466678969687 390.2720091596706Q774.1466678969687 403.2573081731599 767.9461405015579 409.1939833389787Q761.7644596939751 415.13065850479745 750.0230354771336 415.13065850479745L750.0230354771336 415.13065850479745Q738.2250714968079 415.13065850479745 731.9303111622573 406.1219895230154Q725.6543974155345 397.0944739534052 725.6543974155345 376.7590056869974ZM742.465553758107 360.4001674522967L758.8997783441198 360.4001674522967Q759.0317044589158 358.930133601713 759.1070908102276 355.9900659005456Q759.1636305737118 353.04999819937825 759.1636305737118 351.25957235571855L759.1636305737118 351.25957235571855Q759.1636305737118 342.1755170226245 757.2412786152561 338.2742733422292Q755.3377732446284 334.3541830740061 751.1538307468134 334.29764331052206L751.1538307468134 334.29764331052206Q746.7060360194062 334.29764331052206 744.5952181826706 338.7642846257571Q742.465553758107 343.2309259409923 742.465553758107 355.02888992131784L742.465553758107 355.02888992131784L742.465553758107 360.4001674522967ZM788.4512280584177 414.1317893499137L788.4512280584177 322.89545767458446L801.2480611936271 322.89545767458446L802.9065609224906 332.63914358165846L802.9065609224906 332.69568334514236Q806.8078046028859 326.40092301059167 811.7833037894768 324.12048588340417Q816.7399563882398 321.8400487562167 821.7908419261428 321.8400487562167L821.7908419261428 321.8400487562167Q829.7441019895573 321.8400487562167 834.1165103656524 327.47517851678754Q838.4889187417473 333.0914616895303 838.4889187417473 344.22979509587606L838.4889187417473 344.22979509587606L838.4889187417473 414.1317893499137L821.7154555748309 414.1317893499137L821.7154555748309 346.20868681781565Q821.7154555748309 340.1966253006849 819.8684899676873 337.8408018221853Q818.0026777727155 335.48497834368584 814.4218260853963 335.48497834368584L814.4218260853963 335.48497834368584Q811.9152299042728 335.48497834368584 809.5217132501173 337.14347807254944Q807.1470431837897 338.80197780141316 805.2246912253343 341.70435232692455L805.2246912253343 341.70435232692455L805.2246912253343 414.1317893499137L788.4512280584177 414.1317893499137ZM853.1892572475845 382.2622093327723L853.1892572475845 382.2622093327723L853.1892572475845 353.3138504289701Q853.1892572475845 344.09786898108007 854.7158308616522 338.19888699091723Q856.2424044757197 332.2999050007545 858.6547677177032 328.9640589551992Q861.0671309596867 325.60936632181586 863.8187327825742 324.12048588340417Q866.5703346054618 322.6316054449925 869.095777374413 322.27352027626057Q871.6023735555366 321.89658851970063 873.2043335209162 321.89658851970063L873.2043335209162 321.89658851970063Q878.1609861196794 321.89658851970063 881.8172241583106 324.32779834951214Q885.4546156091137 326.7401615914956 887.3204278040853 329.5294565900391L887.3204278040853 329.5294565900391L887.3769675675694 329.4540702387271L886.8492631083855 317.9199584879934L886.8492631083855 293.60786018987847L903.54733992399 293.60786018987847L903.54733992399 414.1317893499137L890.4866545591888 414.1317893499137L889.0354672964331 405.65082482731543Q886.8492631083855 409.2882162781186 883.0045591914743 412.247130567114Q879.1598552745631 415.18719826828146 872.8085551765284 415.18719826828146L872.8085551765284 415.18719826828146Q870.4904248736848 415.18719826828146 867.2111185916135 414.33910181602164Q863.9318123095422 413.47215877593385 860.7090457909549 410.32477860865845Q857.5051258601954 407.17739844138316 855.337768259976 400.52455293810044Q853.1892572475845 393.85286084698987 853.1892572475845 382.2622093327723ZM886.8492631083855 394.98365611666964L886.8492631083855 394.98365611666964L886.8492631083855 342.1755170226245Q885.5865417239097 339.461608375393 883.4945704750021 337.46387006562543Q881.4214458139227 335.48497834368584 878.4436849370991 335.48497834368584L878.4436849370991 335.48497834368584Q875.9747819316317 335.48497834368584 874.0901231488322 336.7853929038175Q872.2054643660324 338.06696087612136 871.1123622720088 341.6101193877846Q870.019260177985 345.15327789944786 870.019260177985 351.9757426931825L870.019260177985 351.9757426931825L870.019260177985 384.91957821651965Q870.019260177985 391.6666566589423 871.1123622720088 395.28520152191754Q872.2054643660324 398.8848997970648 874.1278163244881 400.22300753285253Q876.0501682829438 401.5422686808123 878.5002247005832 401.5422686808123L878.5002247005832 401.5422686808123Q881.8172241583106 401.5422686808123 883.79611588025 399.52568378321666Q885.7938541900178 397.50909888562114 886.8492631083855 394.98365611666964ZM945.7448500708733 391.21433855107045L945.7448500708733 391.21433855107045Q945.7448500708733 387.5581005124392 946.1783215909172 384.4484135208198Q946.6117931109613 381.33872652920047 947.4787361510491 377.8144146053652L947.4787361510491 377.8144146053652L960.7844271576143 377.8144146053652L960.7844271576143 382.8653001432681Q960.7844271576143 392.00589523984627 963.5737221561578 396.8683148994693Q966.3630171547011 401.74958114692026 972.1300730300679 401.74958114692026L972.1300730300679 401.74958114692026Q982.062224815422 401.74958114692026 982.062224815422 392.00589523984627L982.062224815422 392.00589523984627Q982.062224815422 388.217731086419 980.4414182622143 384.05263517643186Q978.8206117090067 379.86869267861675 974.1089647520075 373.8377845736579L974.1089647520075 373.8377845736579L956.2235529032394 351.39149847051453Q951.5119059462402 345.28520401424385 948.8922302381488 339.1977561458011Q946.2914011178852 333.0914616895303 946.2914011178852 325.60936632181586L946.2914011178852 325.60936632181586Q946.2914011178852 314.33910680067413 953.264638614244 307.1585568382077Q960.2567226984304 299.97800687574113 972.6577774892519 299.97800687574113L972.6577774892519 299.97800687574113Q982.6653156259179 299.97800687574113 988.3569851499726 303.5777051508884Q994.0486546740274 307.1962500138636 996.404478152527 312.6994536596385Q998.7603016310266 318.1838107175854 998.7603016310266 323.9508665929522L998.7603016310266 323.9508665929522Q998.7603016310266 327.6071046315834 998.1949039961867 330.67909844754683Q997.6295063613468 333.7699388513382 996.894489436055 337.46387006562543L996.894489436055 337.46387006562543L983.6453381929737 337.46387006562543L983.6453381929737 332.03605277116253Q983.6453381929737 323.1027701406924 980.7995034309461 318.2591970688974Q977.9536686689187 313.41562399710233 972.6577774892519 313.41562399710233L972.6577774892519 313.41562399710233Q967.814204417457 313.41562399710233 965.3264548241614 316.1106860565058Q962.8387052308658 318.7869015280812 962.8387052308658 323.2912360189723L962.8387052308658 323.2912360189723Q962.8387052308658 327.1359399358836 964.4406651962456 330.28332010315887Q966.0237785737972 333.4307002704343 968.4738349914367 336.7476997281616L968.4738349914367 336.7476997281616L988.4135249134567 362.05866718116044Q993.9167285592314 369.14498420448695 996.8002564969149 375.5339774781776Q999.6837844345982 381.9229707518683 999.6837844345982 389.74430470048674L999.6837844345982 389.74430470048674Q999.6837844345982 401.4857289173283 992.2016890668838 408.3270402988909Q984.7195936991693 415.18719826828146 972.2619991448639 415.18719826828146L972.2619991448639 415.18719826828146Q962.0471485420901 415.18719826828146 956.2612460788953 411.7194261079302Q950.4564970278725 408.23280735975095 948.1006735493729 402.7296037139761Q945.7448500708733 397.24524665602917 945.7448500708733 391.21433855107045ZM1012.0094528741079 414.1317893499137L1012.0094528741079 322.89545767458446L1024.862825772801 322.89545767458446L1026.4459391503528 332.63914358165846L1026.4459391503528 332.69568334514236Q1030.366029418576 326.40092301059167 1035.360375192995 324.12048588340417Q1040.3735675552418 321.8400487562167 1045.4056065053169 321.8400487562167L1045.4056065053169 321.8400487562167Q1056.3366274455548 321.8400487562167 1060.1059450111538 332.1679788859585L1060.1059450111538 332.1679788859585Q1064.026035279377 326.2689968957957 1068.8884549390002 324.06394611992016Q1073.769721186451 321.8400487562167 1078.726373785214 321.8400487562167L1078.726373785214 321.8400487562167Q1086.6230940851444 321.8400487562167 1090.9955024612395 327.47517851678754Q1095.3679108373346 333.0914616895303 1095.3679108373346 344.22979509587606L1095.3679108373346 344.22979509587606L1095.3679108373346 414.1317893499137L1078.594447670418 414.1317893499137L1078.594447670418 346.20868681781565Q1078.594447670418 340.1966253006849 1076.7851752389304 337.8408018221853Q1074.957056219615 335.48497834368584 1070.8485000731116 335.48497834368584L1070.8485000731116 335.48497834368584Q1068.586909533752 335.48497834368584 1066.2499326430807 337.20001783603345Q1063.894109164581 338.93390391620915 1061.9717572061256 341.83627844172054L1061.9717572061256 341.83627844172054Q1062.0282969696095 342.43936925221635 1062.0282969696095 343.0424600627123Q1062.0282969696095 343.62670428538013 1062.0282969696095 344.22979509587606L1062.0282969696095 344.22979509587606L1062.0282969696095 414.1317893499137L1045.273680390521 414.1317893499137L1045.273680390521 346.20868681781565Q1045.273680390521 340.1966253006849 1043.4455613712053 337.8408018221853Q1041.6362889397176 335.48497834368584 1037.5277327932145 335.48497834368584L1037.5277327932145 335.48497834368584Q1035.266142253855 335.48497834368584 1032.9480119510115 337.14347807254944Q1030.6298816481678 338.80197780141316 1028.7640694531963 341.70435232692455L1028.7640694531963 341.70435232692455L1028.7640694531963 414.1317893499137L1012.0094528741079 414.1317893499137ZM1128.4248258876398 363.4533146804321L1128.4248258876398 363.4533146804321Q1130.9502686565913 362.1905932959563 1133.8526431821028 360.8524855601686Q1136.773864295442 359.53322441220894 1139.2239207130815 358.66628137212103L1139.2239207130815 358.66628137212103L1139.2239207130815 347.6033343170874Q1139.2239207130815 344.1544087445641 1138.9223753078338 341.1766478677407Q1138.6208299025857 338.19888699091723 1137.1319494641739 336.3142282081177Q1135.6430690257623 334.42956942531805 1132.0622173384431 334.42956942531805L1132.0622173384431 334.42956942531805Q1128.5002122389517 334.42956942531805 1125.6355308890963 337.33194395082944Q1122.789696127069 340.2531650641688 1122.789696127069 348.1310387762712L1122.789696127069 348.1310387762712L1122.789696127069 351.7872768149025L1110.0117095796877 351.7872768149025Q1108.8055279586958 346.6233117500316 1108.8055279586958 342.7786078331203L1108.8055279586958 342.7786078331203Q1108.8055279586958 332.5637572303465 1115.4960666376346 327.2301728750235Q1122.2054519044011 321.89658851970063 1132.589921797627 321.89658851970063L1132.589921797627 321.89658851970063Q1141.6739771307211 321.89658851970063 1146.781402432108 324.4597244643081Q1151.888827733495 327.0040138210876 1153.9431058067466 332.1302857103026Q1155.9785372921701 337.27540418734543 1155.9785372921701 345.15327789944786L1155.9785372921701 345.15327789944786L1155.9785372921701 414.1317893499137L1143.0686246299929 414.1317893499137L1141.8812895968292 406.31045540129526Q1139.2239207130815 410.15515931820653 1134.8515123369866 412.68060208715804Q1130.4791039608915 415.18719826828146 1124.7120480855247 415.18719826828146L1124.7120480855247 415.18719826828146Q1118.7565263318777 415.18719826828146 1114.9118224149668 412.1528976279741Q1111.0671184980554 409.09975039983874 1109.1824597152558 404.0865580375918Q1107.297800932456 399.09221226317277 1107.297800932456 393.19323027300993L1107.297800932456 393.19323027300993Q1107.297800932456 381.9229707518683 1112.6502318756072 375.2701252485856Q1118.021509406586 368.617279745303 1128.4248258876398 363.4533146804321ZM1132.1376036897552 402.4092117209001L1132.1376036897552 402.4092117209001Q1134.2484215264906 402.4092117209001 1136.0388473701503 401.31610962687637Q1137.82927321381 400.22300753285253 1139.2239207130815 398.62104756747283L1139.2239207130815 398.62104756747283L1139.2239207130815 369.88000112977875Q1137.961199328606 370.4077055889627 1136.51001206585 371.12387592642654Q1135.0588248030945 371.85889285171834 1133.1364728446388 373.0462278848821L1133.1364728446388 373.0462278848821Q1129.6121609208037 375.23243207292967 1126.5778602804962 379.5859938611968Q1123.524713052361 383.9207090616359 1123.524713052361 390.6112477405745L1123.524713052361 390.6112477405745Q1123.524713052361 395.8505991567574 1125.5789911256124 399.1299054388288Q1127.6332691988641 402.4092117209001 1132.1376036897552 402.4092117209001ZM1172.8839265738827 414.1317893499137L1172.8839265738827 322.89545767458446L1185.1342086620803 322.89545767458446L1186.6042425126639 332.1679788859585Q1189.3181511598953 327.0040138210876 1192.9555426106986 324.4220312886521Q1196.6117806493298 321.8400487562167 1200.3810982149291 321.8400487562167L1200.3810982149291 321.8400487562167Q1214.4971924980982 321.8400487562167 1214.4971924980982 339.593534490189L1214.4971924980982 339.593534490189Q1214.4971924980982 341.83627844172054 1213.8375619241185 345.53020965600774Q1213.1590847623106 349.205294282467 1212.2356019587387 351.9757426931825L1212.2356019587387 351.9757426931825L1200.588410681037 351.9757426931825L1200.588410681037 344.8894256698559Q1200.588410681037 339.386222024081 1198.9299109521733 337.44502347779746Q1197.2714112233098 335.48497834368584 1194.8213548056701 335.48497834368584L1194.8213548056701 335.48497834368584Q1191.6928212262228 335.48497834368584 1189.6385431529714 340.3850911789648L1189.6385431529714 340.3850911789648L1189.6385431529714 414.1317893499137L1172.8839265738827 414.1317893499137ZM1226.0313042488317 391.40280442935034L1226.0313042488317 335.6169044584818L1218.2665100636975 335.6169044584818L1218.2665100636975 322.89545767458446L1227.4824915115876 322.89545767458446L1230.856030732799 299.24298995044927L1242.7859208279203 299.24298995044927L1242.7859208279203 322.89545767458446L1258.0328103807694 322.89545767458446L1258.0328103807694 335.6169044584818L1242.7859208279203 335.6169044584818L1242.7859208279203 391.5347305441463Q1242.7859208279203 397.50909888562114 1244.934431840312 399.09221226317277Q1247.0829428527036 400.6753256407244 1250.0041639660428 400.6753256407244L1250.0041639660428 400.6753256407244Q1254.6404245717301 400.6753256407244 1257.9574240294573 398.62104756747283L1257.9574240294573 398.62104756747283L1257.9574240294573 409.2316765146347Q1255.11158926743 412.73714185064193 1251.3234251140027 413.96217005946176Q1247.5541075484034 415.18719826828146 1244.048642212396 415.18719826828146L1244.048642212396 415.18719826828146Q1239.4123816067092 415.18719826828146 1235.26613228455 413.3779258367938Q1231.1198829623906 411.54980681747827 1228.5755936056114 406.4046883404353Q1226.0313042488317 401.2784164512203 1226.0313042488317 391.40280442935034L1226.0313042488317 391.40280442935034Z " fill="white" transform="matrix(0.695530303399079,0,0,0.695530303399079,0,43.62204726686949)"/></g></svg>